<svg width="60" height="57" viewBox="0 0 60 57" fill="none" xmlns="http://www.w3.org/2000/svg">
<ellipse cx="30" cy="28.5" rx="30" ry="28.5" fill="#183524"/>
<path d="M8.804 30.192V28.404H13.424V33H11.204L11.12 32.328C10.64 32.88 9.86 33.168 8.708 33.168C6.632 33.168 5.432 31.86 5.432 29.304V28.716C5.432 26.16 6.656 24.852 9.452 24.852C12.008 24.852 13.28 25.848 13.316 27.744V27.816H10.892V27.768C10.868 27.12 10.352 26.88 9.452 26.88C8.36 26.88 7.856 27.336 7.856 28.692V29.328C7.856 30.672 8.348 31.14 9.392 31.14C10.184 31.14 10.784 30.9 10.964 30.264V30.192H8.804ZM21.0672 25.032V27.168H17.1312V28.08H20.3352V30.012H17.1312V30.852H21.0672V33H14.7552V25.032H21.0672ZM25.3512 33.168C22.5672 33.168 21.7032 31.92 21.7032 30.42V30.36H23.9472V30.408C23.9472 30.936 24.4632 31.2 25.3512 31.2C26.1912 31.2 26.5512 31.044 26.5512 30.672V30.648C26.5512 30.3 26.2872 30.192 25.7592 30.144L24.6672 30.024C22.9752 29.856 21.8112 29.184 21.7992 27.36V27.336C21.7992 25.848 22.7952 24.852 25.2912 24.852C27.7752 24.852 28.7232 26.028 28.7232 27.54V27.612H26.4792V27.564C26.4792 27.072 26.0592 26.832 25.2192 26.832C24.3912 26.832 24.1632 26.964 24.1632 27.3V27.312C24.1632 27.648 24.4152 27.816 25.0752 27.888L26.4072 28.02C27.8352 28.164 28.9032 28.884 28.9032 30.504V30.54C28.9032 32.256 27.6912 33.168 25.3512 33.168ZM37.8163 33H35.0443L33.1963 30.012L32.2483 31.068V33H29.8723V25.032H32.2483V27.864L34.6363 25.032H37.6963L34.8283 28.212L37.8163 33ZM46.3651 33H44.0491L43.6531 31.872H40.7731L40.3771 33H38.0491L41.0011 25.02H43.4131L46.3651 33ZM42.2131 27.72L41.4091 30.012H43.0051L42.2131 27.72ZM46.9466 25.032H50.5826C52.7666 25.032 53.8466 25.776 53.8586 27.732V27.756C53.8586 29.688 52.7786 30.48 50.5826 30.48H49.3226V33H46.9466V25.032ZM51.4346 27.756V27.732C51.4346 27.288 51.1946 27.06 50.5706 27.06H49.3226V28.452H50.5706C51.2066 28.452 51.4346 28.212 51.4346 27.756Z" fill="white"/>
</svg>
