<?xml version="1.0" encoding="UTF-8"?>
<svg version="1.1" xmlns="http://www.w3.org/2000/svg" width="512" height="512">
<path d="M0 0 C1.91461703 -0.00467997 1.91461703 -0.00467997 3.86791319 -0.00945449 C7.38108169 -0.01774414 10.89414046 -0.01370402 14.40730917 -0.00748205 C18.20762257 -0.00293454 22.00791782 -0.00995264 25.80822754 -0.01544189 C33.24102105 -0.02431285 40.67377405 -0.02242423 48.10656912 -0.01661661 C54.14932131 -0.0120914 60.19206219 -0.01149093 66.2348156 -0.01366425 C67.52711823 -0.01412394 67.52711823 -0.01412394 68.84552799 -0.01459293 C70.5959578 -0.01523241 72.34638762 -0.01588084 74.09681743 -0.01653811 C90.49180542 -0.02223459 106.886771 -0.01569406 123.28175532 -0.00493738 C137.33746052 0.0039991 151.39313268 0.00244396 165.44883728 -0.0067749 C181.7885543 -0.01748685 198.12825171 -0.021687 214.46797174 -0.01555037 C216.21149122 -0.0149133 217.95501071 -0.01428456 219.6985302 -0.01366425 C220.98515582 -0.01320142 220.98515582 -0.01320142 222.29777389 -0.01272924 C228.33103886 -0.0110052 234.36429136 -0.0139111 240.3975544 -0.01862335 C247.75317587 -0.02424239 255.10875467 -0.02269417 262.46437127 -0.01206186 C266.21447889 -0.00681916 269.96451546 -0.00472445 273.7146225 -0.01136017 C277.78531428 -0.01845404 281.85582791 -0.00996231 285.92651367 0 C287.69252988 -0.00669217 287.69252988 -0.00669217 289.49422318 -0.01351953 C298.64119304 0.02985166 306.89629505 1.077157 315.33726501 4.75396729 C316.32597595 5.17677979 317.31468689 5.59959229 318.33335876 6.03521729 C320.89976501 7.25396729 320.89976501 7.25396729 323.89976501 9.25396729 C323.89976501 9.91396729 323.89976501 10.57396729 323.89976501 11.25396729 C324.63066345 11.49502197 325.36156189 11.73607666 326.11460876 11.98443604 C336.19914558 16.58117442 343.42098173 28.55026233 347.89976501 38.25396729 C351.42469554 48.47486827 352.48267929 57.95568658 352.41442871 68.76223755 C352.41976876 70.26450183 352.42684274 71.76676075 352.43547577 73.26900971 C352.45393721 77.35258933 352.44785584 81.43580224 352.43732274 85.51939607 C352.4302833 89.94079797 352.4463644 94.36212807 352.45932007 98.7835083 C352.48088671 107.42798524 352.48085203 116.07233015 352.47269452 124.71682511 C352.46637713 131.74770348 352.46754746 138.77854355 352.4739666 145.80942154 C352.47486825 146.81271239 352.47576991 147.81600325 352.47669889 148.84969685 C352.47855022 150.88832442 352.48041278 152.92695198 352.48228645 154.96557952 C352.49883949 174.05335268 352.49016712 193.14105177 352.47330087 212.22882046 C352.45860763 229.66313547 352.47323147 247.09727808 352.50207103 264.5315709 C352.53151617 282.46657345 352.54242231 300.40149657 352.53288883 318.33652222 C352.53186636 320.3679753 352.53087174 322.39942839 352.52990532 324.4308815 C352.52942893 325.43020072 352.52895254 326.42951993 352.52846171 327.45912155 C352.52630426 334.47401833 352.53606598 341.48883934 352.55067635 348.50371933 C352.56825695 357.06353751 352.56800055 365.62313606 352.54532469 374.18294583 C352.53423408 378.54366438 352.53090124 382.90399683 352.5496254 387.26469803 C352.64759572 411.89370804 352.15962952 432.88681136 334.30601501 451.87115479 C314.78470277 471.20232438 292.77718583 471.71798857 266.86134255 471.64614129 C263.19867264 471.63928985 259.53604399 471.64986194 255.87338257 471.65808105 C248.7171732 471.67135664 241.56105872 471.66856826 234.40484578 471.65984313 C228.58344155 471.65304199 222.76206373 471.65216032 216.94065666 471.65541458 C216.10914948 471.65587428 215.2776423 471.65633398 214.42093794 471.65680761 C212.73123864 471.65776688 211.04153935 471.65873952 209.35184007 471.65972538 C193.54131181 471.66826133 177.73083589 471.65847369 161.92031621 471.64232428 C148.38389859 471.62892522 134.84755819 471.63124929 121.31114197 471.64508057 C105.55510786 471.66117249 89.79911954 471.66743492 74.04307836 471.65824378 C72.35961529 471.65728823 70.67615222 471.65634511 68.99268913 471.65541458 C68.16460404 471.65495175 67.33651895 471.65448893 66.48334037 471.65401208 C60.67626087 471.65143282 54.86921066 471.65577015 49.0621357 471.66285324 C41.97465758 471.67130883 34.88727901 471.6689036 27.79981215 471.65301101 C24.1906702 471.64518207 20.58169359 471.64194348 16.97255325 471.65195847 C-19.34006098 471.74433791 -19.34006098 471.74433791 -32.28773499 464.87896729 C-33.26516663 464.37176147 -33.26516663 464.37176147 -34.26234436 463.85430908 C-49.10180334 455.62722344 -60.90817116 439.71321005 -65.60878766 423.4998703 C-67.72315915 413.8372411 -67.24410053 403.47739201 -67.22721863 393.64263916 C-67.22837365 392.21350312 -67.22996372 390.78436737 -67.23194587 389.35523224 C-67.23608683 385.46474903 -67.23407239 381.57429062 -67.23095965 377.68380737 C-67.22868428 373.47379394 -67.23219576 369.26378458 -67.23493958 365.05377197 C-67.23937346 356.82081406 -67.23843141 348.5878653 -67.23552693 340.35490704 C-67.23326353 333.66053378 -67.23296444 326.96616308 -67.23405075 320.27178955 C-67.23420398 319.31702933 -67.23435722 318.36226911 -67.23451509 317.37857676 C-67.23483484 315.4386692 -67.23515905 313.49876165 -67.23548768 311.5588541 C-67.2383355 293.3916387 -67.23506641 275.22442836 -67.22968732 257.05721378 C-67.22521992 241.48737909 -67.22599604 225.91755185 -67.23060608 210.34771729 C-67.23596417 192.24307889 -67.23806088 174.13844492 -67.23499382 156.03380585 C-67.23467528 154.10125224 -67.23436091 152.16869863 -67.23405075 150.23614502 C-67.23389648 149.28542696 -67.2337422 148.33470891 -67.23358325 147.35518122 C-67.2327218 140.67308603 -67.23417295 133.99099367 -67.2365303 127.30889893 C-67.23934221 119.15961767 -67.23856074 111.01034603 -67.23324956 102.86106586 C-67.2306313 98.7075631 -67.22957554 94.55407636 -67.23289871 90.40057373 C-67.23590049 86.59099703 -67.23420488 82.78145105 -67.22892116 78.9718771 C-67.22729276 76.95702294 -67.23051979 74.94216661 -67.23397839 72.92731476 C-67.19582492 55.03205285 -65.70519534 41.13223446 -55.10023499 26.25396729 C-54.24558655 25.04547119 -54.24558655 25.04547119 -53.37367249 23.81256104 C-47.44829683 15.81736238 -41.09119245 10.49768796 -32.28773499 5.94146729 C-31.64844055 5.60365234 -31.00914612 5.2658374 -30.35047913 4.91778564 C-20.75623968 0.18947829 -10.509574 -0.03990072 0 0 Z " fill="#E74E3B" transform="translate(102.10023498535156,20.74603271484375)"/>
<path d="M0 0 C199 0 199 0 212 7 C213.98 7.495 213.98 7.495 216 8 C216 8.66 216 9.32 216 10 C216.55171875 10.24492188 217.1034375 10.48984375 217.671875 10.7421875 C242.52347416 24.16872262 260.80629115 56.01309005 269 82 C269.54273381 84.10503183 270.00431489 86.20891896 270.43359375 88.33984375 C271.36190129 92.69968813 272.49206781 97.00958023 273.59179688 101.32885742 C280.77209085 129.70695941 275.25217788 159.18882695 265 186 C264.34 186 263.68 186 263 186 C262.76023437 186.86496094 262.52046875 187.72992188 262.2734375 188.62109375 C254.37807493 209.57044536 229.48078038 227.19985763 211.44140625 238.46484375 C209.46720934 239.70621877 207.54092979 240.98457935 205.625 242.3125 C203.13665173 243.91215246 200.78294205 245.01778516 198 246 C199.83487679 249.94897396 202.18026369 253.57505166 204.5 257.25 C204.94142334 257.95310303 205.38284668 258.65620605 205.83764648 259.38061523 C207.22353547 261.58806295 208.61159385 263.79413481 210 266 C216.02009372 275.57115838 221.95473668 285.18327365 227.74462891 294.89550781 C232.14599018 302.27390808 236.5675326 309.6402506 241 317 C241.36448242 317.60553711 241.72896484 318.21107422 242.10449219 318.83496094 C245.79127968 324.9429223 249.60935205 330.94485371 253.52612305 336.90673828 C259.92590673 346.65547563 265.96007131 356.56760674 271.84765625 366.6328125 C274.86506598 371.78875667 277.94642228 376.9031761 281.0625 382 C281.50352051 382.7233252 281.94454102 383.44665039 282.39892578 384.19189453 C284.29791863 387.29071561 286.22313006 390.33561715 288.30859375 393.3125 C290 396 290 396 290 399 C263.6 399 237.2 399 210 399 C208.35 396.03 206.7 393.06 205 390 C203.679762 388.32294092 202.35156675 386.65191491 201 385 C201 384.34 201 383.68 201 383 C200.34 383 199.68 383 199 383 C198.67128906 382.36835938 198.34257812 381.73671875 198.00390625 381.0859375 C194.61778381 374.7174579 190.93629418 368.65407691 186.89672852 362.68505859 C184 358.31978497 184 358.31978497 184 355 C188.95 355 193.9 355 199 355 C199 345.76 199 336.52 199 327 C187.12 327 175.24 327 163 327 C161.02 323.37 159.04 319.74 157 316 C155.32041283 313.30449232 153.62911022 310.64439891 151.875 308 C150.9261321 306.55140388 149.97825588 305.10215783 149.03125 303.65234375 C148.54140625 302.9032373 148.0515625 302.15413086 147.546875 301.38232422 C144.78698371 297.1318477 142.08054249 292.84770129 139.375 288.5625 C138.85405762 287.73943359 138.33311523 286.91636719 137.79638672 286.06835938 C137.31443848 285.30458984 136.83249023 284.54082031 136.3359375 283.75390625 C135.69470947 282.73792358 135.69470947 282.73792358 135.04052734 281.70141602 C134 280 134 280 133 278 C124.75 277.67 116.5 277.34 108 277 C107.67 262.15 107.34 247.3 107 232 C98.42 231.67 89.84 231.34 81 231 C81 246.18 81 261.36 81 277 C73.08 277 65.16 277 57 277 C57 286.57 57 296.14 57 306 C72.84 306 88.68 306 105 306 C105 336.69 105 367.38 105 399 C70.35 399 35.7 399 0 399 C0 267.33 0 135.66 0 0 Z " fill="#FEFCFB" transform="translate(119,56)"/>
<path d="M0 0 C21.45 0 42.9 0 65 0 C65 23.43 65 46.86 65 71 C43.55 71 22.1 71 0 71 C0 47.57 0 24.14 0 0 Z " fill="#E54D3D" transform="translate(134,101)"/>
<path d="M0 0 C20.46 0 40.92 0 62 0 C62 22.44 62 44.88 62 68 C41.54 68 21.08 68 0 68 C0 45.56 0 23.12 0 0 Z " fill="#E7503F" transform="translate(288,101)"/>
<path d="M0 0 C0.86825912 0.00222061 1.73651825 0.00444122 2.63108826 0.00672913 C4.12315796 0.0069104 4.12315796 0.0069104 5.64537048 0.00709534 C6.69825256 0.0122113 7.75113464 0.01732727 8.83592224 0.02259827 C10.27928955 0.02410889 10.27928955 0.02410889 11.7518158 0.02565002 C15.36189457 0.03089991 18.97195642 0.04486104 22.58201599 0.05775452 C30.64639099 0.07837952 38.71076599 0.09900452 47.01951599 0.12025452 C47.01951599 22.56025452 47.01951599 45.00025452 47.01951599 68.12025452 C38.95514099 68.14087952 30.89076599 68.16150452 22.58201599 68.18275452 C20.03297546 68.19185852 17.48393494 68.20096252 14.85765076 68.21034241 C12.85040846 68.2132614 10.84316557 68.21581 8.83592224 68.21791077 C7.78304016 68.22302673 6.73015808 68.2281427 5.64537048 68.2334137 C4.15330078 68.23359497 4.15330078 68.23359497 2.63108826 68.23377991 C1.76282913 68.23600052 0.89457001 68.23822113 0 68.24050903 C-1.98048401 68.12025452 -1.98048401 68.12025452 -2.98048401 67.12025452 C-3.07988027 65.07012605 -3.10847953 63.0165406 -3.10987854 60.96400452 C-3.1130307 59.64593811 -3.11618286 58.3278717 -3.11943054 56.96986389 C-3.11764076 55.51999376 -3.11558981 54.07012394 -3.11329651 52.62025452 C-3.11396958 51.1443429 -3.11493964 49.66843138 -3.11619568 48.19252014 C-3.11767249 45.09550422 -3.11551865 41.9985171 -3.1108551 38.90150452 C-3.10515781 34.92316903 -3.10843691 30.944901 -3.11442757 26.96656799 C-3.11803364 23.91777535 -3.11689438 20.86899881 -3.11429977 17.82020569 C-3.11363063 16.35292045 -3.11445848 14.88563377 -3.11677933 13.41835022 C-3.11930658 11.37106859 -3.11477461 9.32378186 -3.10987854 7.27650452 C-3.10908295 6.10925842 -3.10828735 4.94201233 -3.10746765 3.73939514 C-2.93481048 0.17820099 -2.93481048 0.17820099 0 0 Z " fill="#E75242" transform="translate(131.98048400878906,373.87974548339844)"/>
<path d="M0 0 C1.36560059 0.00303635 1.36560059 0.00303635 2.75878906 0.00613403 C3.68723633 0.00517731 4.61568359 0.00422058 5.57226562 0.00323486 C7.53938871 0.00255298 9.50651403 0.00440781 11.47363281 0.00857544 C14.49581932 0.01392358 17.51785721 0.00863071 20.54003906 0.00222778 C22.44628939 0.00288856 24.35253963 0.00416972 26.25878906 0.00613403 C27.16918945 0.0041098 28.07958984 0.00208557 29.01757812 0 C35.39383938 0.02399685 35.39383938 0.02399685 36.50878906 1.13894653 C36.59592738 2.84667011 36.61578914 4.55793302 36.60644531 6.26785278 C36.60161133 7.81956177 36.60161133 7.81956177 36.59667969 9.40261841 C36.58411133 11.03553833 36.58411133 11.03553833 36.57128906 12.70144653 C36.56677734 13.793927 36.56226563 14.88640747 36.55761719 16.01199341 C36.54578746 18.72100085 36.52785137 21.42998033 36.50878906 24.13894653 C30.56878906 24.13894653 24.62878906 24.13894653 18.50878906 24.13894653 C18.50878906 38.65894653 18.50878906 53.17894653 18.50878906 68.13894653 C2.33878906 68.13894653 -13.83121094 68.13894653 -30.49121094 68.13894653 C-30.51183594 63.70457153 -30.53246094 59.27019653 -30.55371094 54.70144653 C-30.56281494 53.30096069 -30.57191895 51.90047485 -30.58129883 50.45755005 C-30.58379639 49.36369995 -30.58629395 48.26984985 -30.58886719 47.14285278 C-30.594104 46.01693726 -30.59934082 44.89102173 -30.60473633 43.73098755 C-30.49121094 41.13894653 -30.49121094 41.13894653 -29.49121094 40.13894653 C-27.92948349 40.0520905 -26.36391749 40.03192434 -24.79980469 40.04129028 C-23.85556641 40.04451294 -22.91132813 40.0477356 -21.93847656 40.05105591 C-20.94525391 40.05943481 -19.95203125 40.06781372 -18.92871094 40.07644653 C-17.93162109 40.08095825 -16.93453125 40.08546997 -15.90722656 40.09011841 C-13.43516245 40.10194647 -10.96321576 40.11842804 -8.49121094 40.13894653 C-8.49906616 38.89975464 -8.49906616 38.89975464 -8.50708008 37.63552856 C-8.52428685 34.52306381 -8.5367404 31.41062359 -8.54614258 28.29812622 C-8.55354871 26.30754978 -8.56626568 24.31699536 -8.57910156 22.32644653 C-8.61674437 7.41989533 -8.61674437 7.41989533 -7.49121094 1.13894653 C-5.54257169 -0.80969271 -2.59312374 0.00975913 0 0 Z " fill="#E74C3B" transform="translate(209.4912109375,192.86105346679688)"/>
<path d="M0 0 C25.30743243 0 25.30743243 0 36.375 0.5 C38.08623047 0.57154297 38.08623047 0.57154297 39.83203125 0.64453125 C42.55489106 0.75893712 45.27750158 0.8773473 48 1 C48.02887814 4.47914941 48.04675687 7.95826831 48.0625 11.4375 C48.07087891 12.43072266 48.07925781 13.42394531 48.08789062 14.44726562 C48.09111328 15.39150391 48.09433594 16.33574219 48.09765625 17.30859375 C48.10289307 18.18314209 48.10812988 19.05769043 48.11352539 19.95874023 C48 22 48 22 47 23 C45.21928754 23.08726223 43.4351686 23.10699041 41.65234375 23.09765625 C40.57275391 23.09443359 39.49316406 23.09121094 38.38085938 23.08789062 C37.24455078 23.07951172 36.10824219 23.07113281 34.9375 23.0625 C33.79732422 23.05798828 32.65714844 23.05347656 31.48242188 23.04882812 C28.65492582 23.0369976 25.82745655 23.0190615 23 23 C23 30.59 23 38.18 23 46 C15.41 46 7.82 46 0 46 C0 30.82 0 15.64 0 0 Z " fill="#E74F3E" transform="translate(134,288)"/>
<path d="M0 0 C1.70209877 0.00333092 1.70209877 0.00333092 3.43858337 0.00672913 C4.71983597 0.00680466 6.00108856 0.00688019 7.32116699 0.00695801 C8.73001646 0.01206542 10.13886554 0.01728143 11.54771423 0.02259827 C12.98118033 0.02446249 14.41464706 0.02588637 15.84811401 0.02688599 C19.62765755 0.03071079 23.40716288 0.04054075 27.18669128 0.05158997 C31.04075097 0.06180489 34.8948168 0.06638378 38.74888611 0.07142639 C46.31596287 0.08216306 53.88300021 0.09975955 61.45005798 0.12025452 C61.45005798 7.38025452 61.45005798 14.64025452 61.45005798 22.12025452 C40.00005798 22.12025452 18.55005798 22.12025452 -3.54994202 22.12025452 C-3.54994202 0.16741422 -3.54994202 0.16741422 0 0 Z " fill="#E74C3B" transform="translate(283.54994201660156,238.87974548339844)"/>
<path d="M0 0 C7.59 0 15.18 0 23 0 C24 1 24 1 24.12025452 3.01844788 C24.1169236 4.3474839 24.1169236 4.3474839 24.11352539 5.70336914 C24.11344986 6.70433121 24.11337433 7.70529327 24.11329651 8.73658752 C24.10813522 9.8251152 24.10297394 10.91364288 24.09765625 12.03515625 C24.0962413 13.14354355 24.09482635 14.25193085 24.09336853 15.39390564 C24.08775033 18.95013069 24.07519475 22.50629383 24.0625 26.0625 C24.05748734 28.46679597 24.05292403 30.87109292 24.04882812 33.27539062 C24.0386239 39.18363706 24.01905205 45.09174885 24 51 C16.08 51 8.16 51 0 51 C0 34.17 0 17.34 0 0 Z " fill="#E74F3E" transform="translate(191,384)"/>
<path d="M0 0 C6.27 0 12.54 0 19 0 C19 21.12 19 42.24 19 64 C12.73 64 6.46 64 0 64 C0 42.88 0 21.76 0 0 Z " fill="#E75242" transform="translate(279,295)"/>
<path d="M0 0 C7.92 0 15.84 0 24 0 C24 11.22 24 22.44 24 34 C16.08 34 8.16 34 0 34 C0 22.78 0 11.56 0 0 Z " fill="#E75242" transform="translate(345,408)"/>
<path d="M0 0 C10.89 0 21.78 0 33 0 C33 7.59 33 15.18 33 23 C22.11 23 11.22 23 0 23 C0 15.41 0 7.82 0 0 Z " fill="#E75141" transform="translate(228,149)"/>
<path d="M0 0 C9.9 0 19.8 0 30 0 C30.020625 3.774375 30.04125 7.54875 30.0625 11.4375 C30.071604 12.62915771 30.08070801 13.82081543 30.09008789 15.04858398 C30.09258545 15.98001221 30.09508301 16.91144043 30.09765625 17.87109375 C30.10551147 19.30859985 30.10551147 19.30859985 30.11352539 20.77514648 C30 23 30 23 29 24 C26.85441173 24.08775605 24.70595579 24.10695219 22.55859375 24.09765625 C21.25341797 24.09443359 19.94824219 24.09121094 18.60351562 24.08789062 C17.2148431 24.07953401 15.82617123 24.07106905 14.4375 24.0625 C13.04492344 24.05748666 11.65234519 24.05292347 10.25976562 24.04882812 C6.83982549 24.03699442 3.4199075 24.01905831 0 24 C0 16.08 0 8.16 0 0 Z " fill="#E85949" transform="translate(319,202)"/>
<path d="M0 0 C8.91 0 17.82 0 27 0 C27 8.25 27 16.5 27 25 C18.09 25 9.18 25 0 25 C0 16.75 0 8.5 0 0 Z " fill="#FDF5F4" transform="translate(139,396)"/>
<path d="M0 0 C4.39663033 -0.02291238 8.79305488 -0.04283833 13.18969727 -0.05493164 C14.68644918 -0.05997121 16.18319616 -0.06680287 17.67993164 -0.07543945 C19.82699807 -0.08752159 21.97399962 -0.09323191 24.12109375 -0.09765625 C26.06133423 -0.10551147 26.06133423 -0.10551147 28.04077148 -0.11352539 C31 0 31 0 32 1 C32.08669432 2.4887186 32.10703494 3.981445 32.09765625 5.47265625 C32.09515869 6.28226807 32.09266113 7.09187988 32.09008789 7.92602539 C32.08098389 8.96106201 32.07187988 9.99609863 32.0625 11.0625 C32.041875 14.341875 32.02125 17.62125 32 21 C21.44 21 10.88 21 0 21 C0 14.07 0 7.14 0 0 Z " fill="#E75443" transform="translate(229,101)"/>
<path d="M0 0 C7.59 0 15.18 0 23 0 C23 9.57 23 19.14 23 29 C15.41 29 7.82 29 0 29 C0 19.43 0 9.86 0 0 Z " fill="#E74E3D" transform="translate(134,234)"/>
<path d="M0 0 C8.58 0 17.16 0 26 0 C26 7.92 26 15.84 26 24 C17.42 24 8.84 24 0 24 C0 16.08 0 8.16 0 0 Z " fill="#212A3F" transform="translate(155,125)"/>
<path d="M0 0 C8.91 0 17.82 0 27 0 C27 6.93 27 13.86 27 21 C18.09 21 9.18 21 0 21 C0 14.07 0 7.14 0 0 Z " fill="#E75242" transform="translate(154,194)"/>
<path d="M0 0 C1.00023193 0.00523682 2.00046387 0.01047363 3.03100586 0.01586914 C4.1105957 0.0190918 5.19018555 0.02231445 6.30249023 0.02563477 C8.00695312 0.03820312 8.00695312 0.03820312 9.74584961 0.05102539 C11.45611328 0.05779297 11.45611328 0.05779297 13.20092773 0.06469727 C16.02842379 0.07652779 18.85589306 0.09446389 21.68334961 0.11352539 C21.68334961 7.37352539 21.68334961 14.63352539 21.68334961 22.11352539 C17.70413866 22.14035153 13.7251062 22.16027932 9.74584961 22.17602539 C8.04138672 22.18859375 8.04138672 22.18859375 6.30249023 22.20141602 C5.22290039 22.20463867 4.14331055 22.20786133 3.03100586 22.21118164 C1.53065796 22.21903687 1.53065796 22.21903687 0 22.22705078 C-2.31665039 22.11352539 -2.31665039 22.11352539 -3.31665039 21.11352539 C-3.41545836 19.63699875 -3.44744285 18.15585303 -3.44946289 16.67602539 C-3.45075195 15.78141602 -3.45204102 14.88680664 -3.45336914 13.96508789 C-3.44756836 12.55356445 -3.44756836 12.55356445 -3.44165039 11.11352539 C-3.44551758 10.17250977 -3.44938477 9.23149414 -3.45336914 8.26196289 C-3.45208008 7.36735352 -3.45079102 6.47274414 -3.44946289 5.55102539 C-3.447771 4.3115918 -3.447771 4.3115918 -3.44604492 3.04711914 C-3.2544468 0.18399246 -2.871006 0.14069109 0 0 Z " fill="#E85646" transform="translate(252.316650390625,258.886474609375)"/>
<path d="M0 0 C7.59 0 15.18 0 23 0 C23 7.59 23 15.18 23 23 C15.41 23 7.82 23 0 23 C0 15.41 0 7.82 0 0 Z " fill="#FDF5F4" transform="translate(308,124)"/>
<path d="M0 0 C7.26 0 14.52 0 22 0 C22 7.92 22 15.84 22 24 C14.74 24 7.48 24 0 24 C0 16.08 0 8.16 0 0 Z " fill="#E85646" transform="translate(272,204)"/>
<path d="M0 0 C1.36560059 0.00303635 1.36560059 0.00303635 2.75878906 0.00613403 C3.68723633 0.00517731 4.61568359 0.00422058 5.57226562 0.00323486 C7.53938871 0.00255298 9.50651403 0.00440781 11.47363281 0.00857544 C14.49581932 0.01392358 17.51785721 0.00863071 20.54003906 0.00222778 C22.44628939 0.00288856 24.35253963 0.00416972 26.25878906 0.00613403 C27.16918945 0.0041098 28.07958984 0.00208557 29.01757812 0 C35.39383938 0.02399685 35.39383938 0.02399685 36.50878906 1.13894653 C36.59592738 2.84667011 36.61578914 4.55793302 36.60644531 6.26785278 C36.60161133 7.81956177 36.60161133 7.81956177 36.59667969 9.40261841 C36.58411133 11.03553833 36.58411133 11.03553833 36.57128906 12.70144653 C36.56677734 13.793927 36.56226563 14.88640747 36.55761719 16.01199341 C36.54578733 18.72103148 36.5293045 21.42996253 36.50878906 24.13894653 C36.17878906 24.13894653 35.84878906 24.13894653 35.50878906 24.13894653 C35.50878906 16.87894653 35.50878906 9.61894653 35.50878906 2.13894653 C21.97878906 2.13894653 8.44878906 2.13894653 -5.49121094 2.13894653 C-6.08514051 8.07824226 -6.62732095 13.75398995 -6.80761719 19.67800903 C-6.82839828 20.32974091 -6.84917938 20.98147278 -6.87059021 21.6529541 C-6.93482109 23.68986796 -6.99436729 25.72688508 -7.05371094 27.76394653 C-7.0970172 29.16369585 -7.14063481 30.56343557 -7.18457031 31.96316528 C-7.28983412 35.35499908 -7.39094471 38.74696133 -7.49121094 42.13894653 C-14.75121094 42.13894653 -22.01121094 42.13894653 -29.49121094 42.13894653 C-29.49121094 50.38894653 -29.49121094 58.63894653 -29.49121094 67.13894653 C-13.98121094 67.13894653 1.52878906 67.13894653 17.50878906 67.13894653 C17.50878906 52.94894653 17.50878906 38.75894653 17.50878906 24.13894653 C17.83878906 24.13894653 18.16878906 24.13894653 18.50878906 24.13894653 C18.50878906 38.65894653 18.50878906 53.17894653 18.50878906 68.13894653 C2.33878906 68.13894653 -13.83121094 68.13894653 -30.49121094 68.13894653 C-30.51183594 63.70457153 -30.53246094 59.27019653 -30.55371094 54.70144653 C-30.56281494 53.30096069 -30.57191895 51.90047485 -30.58129883 50.45755005 C-30.58379639 49.36369995 -30.58629395 48.26984985 -30.58886719 47.14285278 C-30.594104 46.01693726 -30.59934082 44.89102173 -30.60473633 43.73098755 C-30.49121094 41.13894653 -30.49121094 41.13894653 -29.49121094 40.13894653 C-27.92948349 40.0520905 -26.36391749 40.03192434 -24.79980469 40.04129028 C-23.85556641 40.04451294 -22.91132813 40.0477356 -21.93847656 40.05105591 C-20.94525391 40.05943481 -19.95203125 40.06781372 -18.92871094 40.07644653 C-17.93162109 40.08095825 -16.93453125 40.08546997 -15.90722656 40.09011841 C-13.43516245 40.10194647 -10.96321576 40.11842804 -8.49121094 40.13894653 C-8.49906616 38.89975464 -8.49906616 38.89975464 -8.50708008 37.63552856 C-8.52428685 34.52306381 -8.5367404 31.41062359 -8.54614258 28.29812622 C-8.55354871 26.30754978 -8.56626568 24.31699536 -8.57910156 22.32644653 C-8.61674437 7.41989533 -8.61674437 7.41989533 -7.49121094 1.13894653 C-5.54257169 -0.80969271 -2.59312374 0.00975913 0 0 Z " fill="#ED897E" transform="translate(209.4912109375,192.86105346679688)"/>
<path d="M0 0 C1.70209877 0.00333092 1.70209877 0.00333092 3.43858337 0.00672913 C4.71983597 0.00680466 6.00108856 0.00688019 7.32116699 0.00695801 C8.73001646 0.01206542 10.13886554 0.01728143 11.54771423 0.02259827 C12.98118033 0.02446249 14.41464706 0.02588637 15.84811401 0.02688599 C19.62765755 0.03071079 23.40716288 0.04054075 27.18669128 0.05158997 C31.04075097 0.06180489 34.8948168 0.06638378 38.74888611 0.07142639 C46.31596085 0.08216306 53.88300407 0.09923903 61.45005798 0.12025452 C61.45005798 0.45025452 61.45005798 0.78025452 61.45005798 1.12025452 C40.43604573 2.02907308 19.48030241 2.23545366 -1.54994202 2.12025452 C-1.54994202 8.39025452 -1.54994202 14.66025452 -1.54994202 21.12025452 C19.24005798 21.12025452 40.03005798 21.12025452 61.45005798 21.12025452 C61.45005798 21.45025452 61.45005798 21.78025452 61.45005798 22.12025452 C40.00005798 22.12025452 18.55005798 22.12025452 -3.54994202 22.12025452 C-3.54994202 0.16741422 -3.54994202 0.16741422 0 0 Z " fill="#ED8377" transform="translate(283.54994201660156,238.87974548339844)"/>
</svg>
